# xmcd
#
# Track frame offsets:
#      150
#      16680
#      36027
#      49426
#      68651
#      81989
#      94341
#      106658
#      121718
#      134411
#      144499
#      157418
# 
# Disc length: 2273 seconds
#
# Revision: 2
# Processed by: cddbd v1.5.1PL0 Copyright (c) Steve Scherf et al.
#
# Submitted via: FreeRIP 1.21
#
DISCID=9f08df0c
DTITLE=Various Artist - Sertanejo Bom Demais
DYEAR=1900
DGENRE=Sertanejo
TTITLE0=Tibagi and Miltinho - Pombinha Branca
TTITLE1=Mococa and Moraci - Meu Martírio
TTITLE2=Vieira and Vieirinha - A Grande Verdade
TTITLE3=Garcia and Zé Matão - Terra Roxa
TTITLE4=Chitãozinho and Xororó - Moreninha Linda
TTITLE5=Nestor and Nestorzinho - Mocinhas da Cidade
TTITLE6=Tonico and Tinoco - Hoje é meu Aniversário
TTITLE7=Zé Carreiro and Carreirinho - Canoeiro
TTITLE8=Abel and Caim - Menino Boiadeiro
TTITLE9=Pedro Bento and Zé da Estrada - Galopeira
TTITLE10=Raul Torres and Florêncio - Maria Carolina
TTITLE11=Cascatinha and Inhana - Meu Passado
EXTD=
EXTT0=
EXTT1=
EXTT2=
EXTT3=
EXTT4=
EXTT5=
EXTT6=
EXTT7=
EXTT8=
EXTT9=
EXTT10=
EXTT11=
PLAYORDER=
